<svg width="15" height="19" viewBox="0 0 15 19" fill="none" xmlns="http://www.w3.org/2000/svg">
<path d="M7.7397 0.0039601C3.88119 -0.126074 0.712509 2.96303 0.712509 6.79217C0.712509 11.1378 4.88284 14.2916 7.22031 18.8271C7.33898 19.0574 7.67049 19.0577 7.78957 18.8275C9.90415 14.7464 13.5182 12.0098 14.188 8.07816C14.8815 4.00967 11.8645 0.14302 7.7397 0.0039601ZM7.50461 10.3499C5.53974 10.3499 3.94686 8.757 3.94686 6.79217C3.94686 4.82735 5.53978 3.23442 7.50461 3.23442C9.46947 3.23442 11.0624 4.82735 11.0624 6.79217C11.0624 8.757 9.46947 10.3499 7.50461 10.3499Z" fill="#FAFAFA"/>
</svg>
