<svg width="137" height="137" viewBox="0 0 137 137" fill="none" xmlns="http://www.w3.org/2000/svg">
<path d="M90.675 115.269C90.2 114.793 89.575 114.543 88.9 114.543H81.7C81.675 114.543 81.675 114.543 81.65 114.543C78.125 114.543 74.6 113.967 71.25 112.865C70.425 112.589 69.525 112.714 68.8 113.19C67.125 114.317 67.475 116.872 69.375 117.523C73.325 118.85 77.475 119.551 81.65 119.551C81.675 119.551 81.675 119.551 81.7 119.551H87.875L100.575 132.274C101.075 132.775 101.7 133 102.35 133C103 133 103.625 132.75 104.125 132.274C105.1 131.297 105.1 129.719 104.125 128.743L90.675 115.269Z" fill="#353535"/>
<path d="M130.5 99.7665C129.85 99.7665 129.2 100.042 128.725 100.493C128.25 100.969 128 101.595 128 102.271C128 102.922 128.275 103.573 128.725 104.049C129.2 104.525 129.825 104.775 130.5 104.775C131.175 104.775 131.8 104.5 132.275 104.049C132.75 103.573 133 102.947 133 102.271C133 101.62 132.725 100.969 132.275 100.493C131.8 100.042 131.15 99.7665 130.5 99.7665Z" fill="#353535"/>
<path d="M119.575 87.7955L119.6 77.6777C119.6 70.0393 117.375 62.6263 113.125 56.2651L102.125 39.8362C100.625 37.5822 98.325 36.0796 95.675 35.5787C93.025 35.0778 90.35 35.6539 88.125 37.2066C84.5 39.736 83.075 44.3191 84.35 48.4013L77.825 41.8648C76.85 40.888 75.275 40.888 74.3 41.8648C73.325 42.8415 73.325 44.4193 74.3 45.396L88.325 59.4457C89.625 60.748 91.625 60.8732 93.05 59.7212C94.5 58.5942 94.85 56.6157 93.9 55.0379L89.6 47.9254C88.25 45.6965 88.875 42.7663 91 41.2888C92.1 40.5124 93.425 40.2369 94.75 40.4623C96.075 40.7127 97.2 41.4641 97.95 42.591L108.95 59.0199C112.65 64.5546 114.6 70.991 114.6 77.6276L114.575 88.7973C114.575 89.4734 114.825 90.0996 115.3 90.5754L122 97.2872C122.5 97.7881 123.125 98.0135 123.775 98.0135C124.425 98.0135 125.05 97.763 125.55 97.2872C126.525 96.3105 126.525 94.7327 125.55 93.756L119.575 87.7955Z" fill="#353535"/>
<path d="M70.15 40.2369C70.8 40.2369 71.45 39.9614 71.925 39.5106C72.4 39.0348 72.65 38.4087 72.65 37.7325C72.65 37.0563 72.375 36.4302 71.925 35.9544C71.475 35.4785 70.825 35.2281 70.15 35.2281C69.5 35.2281 68.85 35.5036 68.375 35.9544C67.9 36.4302 67.65 37.0563 67.65 37.7325C67.65 38.3836 67.925 39.0348 68.375 39.5106C68.85 39.9614 69.5 40.2369 70.15 40.2369Z" fill="#353535"/>
<path d="M95.125 74.8228C96.1 73.846 96.1 72.2683 95.125 71.2916C94.15 70.3148 92.575 70.3148 91.6 71.2916L90.5 72.3684C85.825 77.0517 85.825 84.6651 90.5 89.3232C91 89.8241 91.625 90.0495 92.275 90.0495C92.925 90.0495 93.55 89.7991 94.05 89.3232C95.025 88.3465 95.025 86.7687 94.05 85.792C91.325 83.0622 91.325 78.6294 94.05 75.8997L95.125 74.8228Z" fill="#353535"/>
<path d="M124.325 18.5238C122.725 18.5238 121.175 18.9746 119.85 19.801C118.5 18.9746 116.95 18.5238 115.375 18.5238C110.6 18.5238 106.7 22.5058 106.7 27.3643C106.7 30.1192 108.675 33.45 112.775 37.5072C115.525 40.237 118.225 42.3407 118.35 42.4158C118.8 42.7664 119.325 42.9417 119.875 42.9417C120.425 42.9417 120.95 42.7664 121.4 42.4158C121.525 42.3407 124.225 40.237 126.975 37.5072C131.05 33.45 133.05 30.1192 133.05 27.3643C133 22.4808 129.1 18.5238 124.325 18.5238ZM119.85 37.2317C115.675 33.7506 111.7 29.3178 111.7 27.3643C111.7 25.2356 113.35 23.5326 115.375 23.5326C116.375 23.5326 117.325 23.9584 118.025 24.7097C118.5 25.2356 119.175 25.5111 119.85 25.5111C120.525 25.5111 121.225 25.2106 121.7 24.7097C122.4 23.9584 123.35 23.5326 124.35 23.5326C126.375 23.5326 128.025 25.2606 128.025 27.3643C128 29.3178 124.025 33.7506 119.85 37.2317Z" fill="#353535"/>
<path d="M18.15 29.4179C18.675 29.4179 19.225 29.2426 19.675 28.892C19.8 28.8169 22.5 26.7382 25.25 24.0084C29.325 19.9513 31.325 16.6204 31.325 13.8656C31.325 8.982 27.425 5 22.65 5C21.05 5 19.5 5.45079 18.15 6.27725C16.825 5.45079 15.275 5 13.675 5C8.9 5 5 8.982 5 13.8405C5 16.5954 6.975 19.9262 11.075 23.9834C13.825 26.7132 16.525 28.8169 16.65 28.892C17.1 29.2677 17.625 29.4179 18.15 29.4179ZM10 13.8405C10 11.7368 11.65 10.0088 13.675 10.0088C14.675 10.0088 15.625 10.4346 16.325 11.1859C16.8 11.7118 17.475 11.9873 18.175 11.9873C18.875 11.9873 19.55 11.6868 20 11.1859C20.7 10.4346 21.65 10.0088 22.65 10.0088C24.675 10.0088 26.325 11.7368 26.325 13.8405C26.325 15.794 22.35 20.2268 18.175 23.7079C13.975 20.2518 10 15.819 10 13.8405Z" fill="#353535"/>
<path d="M71.325 97.3123L66.2 97.3373C66.675 95.1836 66.625 93.1299 66 91.3769L67.525 82.7617L59.025 86.2178C58.65 86.1927 58.3 86.2178 57.925 86.2428C57.9 85.6167 57.825 85.0157 57.7 84.4146L59.425 74.6975L50.75 78.2288C48.7 78.0785 46.45 78.6545 44.325 79.8817L45.275 74.5974L35.95 78.4041L35.975 78.4541C35.625 78.5293 35.25 78.6295 34.875 78.7547C34.225 78.955 33.575 79.2305 32.95 79.5561L25.95 72.5187L24.925 71.4919C23.05 69.6136 23.05 66.5582 24.925 64.6799C26.675 62.9269 29.45 62.8016 31.35 64.3544L32.725 65.7318L32.75 65.7067L37.65 70.6154C38.15 71.1163 38.775 71.3416 39.425 71.3416C40.075 71.3416 40.7 71.0912 41.2 70.6154C42.175 69.6387 42.175 68.0609 41.2 67.0842L30.425 56.2902V56.3403L29.85 55.7643C27.975 53.886 27.975 50.8306 29.85 48.9523C31.6 47.1992 34.375 47.074 36.275 48.6267L47.525 59.8965C48.025 60.3974 48.65 60.6228 49.3 60.6228C49.95 60.6228 50.575 60.3724 51.075 59.8965C52.05 58.9198 52.05 57.342 51.075 56.3653L35.25 40.5625C33.375 38.6842 33.375 35.6289 35.25 33.7506C37.125 31.8723 40.175 31.8723 42.05 33.7506L60.9 52.6838C61.4 53.1847 62.025 53.4101 62.675 53.4101C63.325 53.4101 63.95 53.1597 64.45 52.6838C65.425 51.7071 65.425 50.1294 64.45 49.1526L50.125 34.7523C48.6 32.874 48.7 30.0691 50.45 28.316C52.325 26.4377 55.375 26.4377 57.25 28.316L62.5 33.5753C63.475 34.552 65.05 34.552 66.025 33.5753C67 32.5985 67 31.0208 66.025 30.0441L60.775 24.7848C56.95 20.9531 50.725 20.9531 46.925 24.7848C45.65 26.0621 44.825 27.5897 44.4 29.1926C42.75 27.9904 40.775 27.3393 38.675 27.3393C36.05 27.3393 33.6 28.3661 31.75 30.2194C28.3 33.6754 27.975 39.0599 30.725 42.8916C29.1 43.3174 27.575 44.1689 26.325 45.4211C22.725 49.0274 22.525 54.7876 25.725 58.6443C24.15 59.0701 22.65 59.9216 21.425 61.1487C17.6 64.9805 17.6 71.2164 21.425 75.0231L21.5 75.0983L28.925 82.5363C28.425 83.0372 27.95 83.5631 27.5 84.1391C24.625 87.7705 23.375 92.0781 24.1 95.6343C24 95.7596 23.9 95.8597 23.825 95.985C19.75 101.019 18.025 105.552 18.25 110.561C17.225 112.289 14.7 116.596 13.925 118.55C13.225 120.378 12.275 123.784 11.15 128.743C10.85 130.095 11.675 131.422 13.025 131.748C13.225 131.798 13.4 131.823 13.575 131.823C14.725 131.823 15.75 131.047 16 129.87C17.35 124.009 18.125 121.48 18.55 120.378C19.175 118.75 21.9 114.142 22.875 112.514C23.15 112.063 23.275 111.537 23.225 111.011C22.875 106.979 24.175 103.423 27.575 99.1405C27.9 98.7398 28.225 98.3391 28.575 97.9885C29.225 97.2873 29.4 96.2855 29.075 95.409L29 95.1836C28.4 93.4305 28.9 90.325 31.275 87.2947C32.7 85.4915 34.55 84.1391 36.325 83.5631C37.15 83.2877 38.65 82.9871 39.725 83.7635C39.6 83.9137 39.475 84.039 39.375 84.1892C37.1 87.0443 35.8 90.4753 35.775 93.5557C35.775 94.9331 36.875 96.0601 38.25 96.0851C38.25 96.0851 38.25 96.0851 38.275 96.0851C39.65 96.0851 40.775 94.9832 40.775 93.6058C40.8 91.6023 41.7 89.2982 43.3 87.3197C46.25 83.6132 50.175 82.5113 51.85 83.8386C52.775 84.5649 53.1 86.1427 52.775 87.9458C51.05 88.9476 49.375 90.3751 47.95 92.1783C46.1 94.5074 44.925 97.1119 44.5 99.7165C44.275 101.094 45.2 102.371 46.575 102.572C47.95 102.797 49.225 101.87 49.425 100.493C49.7 98.7648 50.55 96.9116 51.85 95.2837C53.1 93.731 54.5 92.6291 55.85 91.9779C55.925 91.9529 56.025 91.9028 56.1 91.8527C57.85 91.0763 59.45 91.0763 60.375 91.8026C61.6 92.7793 61.75 95.0082 60.9 97.4125C57 96.8365 52.35 98.9652 48.95 103.248C48.3 104.074 47.725 104.951 47.225 105.827C46.575 107.029 47 108.557 48.225 109.233C49.425 109.884 50.95 109.459 51.625 108.231C51.975 107.58 52.4 106.954 52.875 106.353C55.825 102.647 59.75 101.545 61.425 102.872C63.1 104.199 62.925 108.282 59.975 111.988C57.025 115.72 52.65 117.147 51 115.845C49.925 114.993 48.375 115.169 47.525 116.221C45.45 118.75 43.25 120.403 40.425 121.605C40.1 121.755 39.8 121.956 39.55 122.231L38.875 122.957C38.75 123.083 38.65 123.233 38.55 123.408L35.25 129.143C34.55 130.345 34.975 131.873 36.15 132.574C36.55 132.8 36.975 132.9 37.4 132.9C38.275 132.9 39.1 132.449 39.575 131.648L42.75 126.163L42.875 126.038C45.65 124.811 47.925 123.183 50.05 120.979C51.875 121.58 54.05 121.505 56.3 120.728C59.15 119.752 61.85 117.773 63.9 115.169C66.825 111.462 68 107.205 67.325 103.749L71.325 97.3123Z" fill="#353535"/>
</svg>
