<svg width="14" height="14" viewBox="0 0 14 14" fill="none" xmlns="http://www.w3.org/2000/svg">
<path d="M13.6861 11.0641L11.524 8.90183C11.0934 8.47291 10.3802 8.48594 9.93458 8.93175L8.84532 10.0208C8.7765 9.98285 8.70527 9.94323 8.63038 9.9012C7.94252 9.52006 7.00107 8.99767 6.01038 8.00627C5.01676 7.01277 4.49389 6.06987 4.11159 5.38157C4.07125 5.30865 4.0326 5.23834 3.99443 5.17157L4.72548 4.4416L5.0849 4.08174C5.53123 3.63529 5.54354 2.92233 5.1139 2.49217L2.95182 0.329609C2.52218 -0.0999508 1.8087 -0.0869192 1.36237 0.359534L0.753019 0.972381L0.769671 0.988912C0.565348 1.24962 0.39461 1.55032 0.267552 1.87458C0.150429 2.18323 0.0775083 2.47777 0.0441652 2.77291C-0.241323 5.13968 0.840219 7.30272 3.77538 10.2379C7.83267 14.2949 11.1023 13.9885 11.2434 13.9735C11.5506 13.9368 11.845 13.8634 12.1442 13.7472C12.4656 13.6216 12.7661 13.4511 13.0267 13.2472L13.04 13.259L13.6573 12.6546C14.1027 12.2082 14.1156 11.495 13.6861 11.0641Z" fill="#FAFAFA"/>
</svg>
